<svg xmlns="http://www.w3.org/2000/svg" xmlns:xlink="http://www.w3.org/1999/xlink" width="1080" zoomAndPan="magnify" viewBox="0 0 810 809.999993" height="1080" preserveAspectRatio="xMidYMid meet" version="1.0"><defs><g/></defs><g fill="#d9d9d9" fill-opacity="1"><g transform="translate(634.276781, 469.957422)"><g><path d="M 29.9375 81.0625 C 30.113281 81.144531 30.207031 81.242188 30.21875 81.359375 C 30.238281 81.484375 30.207031 81.632812 30.125 81.8125 C 30.09375 81.875 30.007812 82.003906 29.875 82.203125 C 29.738281 82.398438 29.507812 82.679688 29.1875 83.046875 C 28.875 83.410156 28.382812 83.910156 27.71875 84.546875 C 26.382812 85.773438 24.789062 87.648438 22.9375 90.171875 C 21.175781 92.453125 20.265625 93.613281 20.203125 93.65625 C 20.148438 93.695312 20.097656 93.707031 20.046875 93.6875 C 19.796875 93.5625 19.28125 93.09375 18.5 92.28125 C 15.65625 89.675781 8.769531 84.09375 -2.15625 75.53125 C -13.09375 66.976562 -21.046875 60.925781 -26.015625 57.375 L -30.15625 54.640625 L -26.671875 47.296875 C -26.671875 47.296875 -26.65625 47.265625 -26.625 47.203125 C -26.625 47.203125 -26.609375 47.171875 -26.578125 47.109375 C -26.578125 47.109375 -26.566406 47.082031 -26.546875 47.03125 L -26.5 46.921875 L -26.0625 46.03125 C -24.65625 43.0625 -23.703125 41.363281 -23.203125 40.9375 C -22.710938 40.507812 -21.703125 40.550781 -20.171875 41.0625 C -19.828125 41.144531 -19.550781 41.203125 -19.34375 41.234375 C -17.320312 41.816406 -12.1875 42.921875 -3.9375 44.546875 C 4.3125 46.171875 8.617188 46.921875 8.984375 46.796875 C 9.035156 46.816406 9.078125 46.796875 9.109375 46.734375 C 9.140625 46.679688 9.035156 46.519531 8.796875 46.25 C 8.691406 46.132812 8.507812 45.972656 8.25 45.765625 C 7.601562 45.242188 5.640625 43.539062 2.359375 40.65625 C -0.941406 37.75 -5.984375 33.390625 -12.765625 27.578125 L -16 24.828125 L -13.03125 18.578125 C -11.113281 14.523438 -10.085938 12.203125 -9.953125 11.609375 C -9.953125 11.453125 -9.9375 11.34375 -9.90625 11.28125 C -9.800781 11.039062 -9.601562 10.929688 -9.3125 10.953125 C -9.03125 10.984375 -8.179688 11.222656 -6.765625 11.671875 C 1.785156 14.398438 14.203125 17.804688 30.484375 21.890625 C 43.066406 24.992188 50.789062 26.960938 53.65625 27.796875 L 54.828125 28.140625 L 53.265625 30.734375 C 52.304688 32.273438 50.945312 34.585938 49.1875 37.671875 L 46.90625 42.03125 L 45.765625 41.59375 C 44.441406 41.125 40.378906 39.863281 33.578125 37.8125 C 26.773438 35.757812 22.5 34.546875 20.75 34.171875 C 19.695312 33.890625 17.566406 33.320312 14.359375 32.46875 C 12.515625 31.96875 11.535156 31.835938 11.421875 32.078125 C 11.429688 32.222656 11.535156 32.457031 11.734375 32.78125 C 12.453125 33.488281 15.585938 36.101562 21.140625 40.625 C 26.691406 45.144531 31.101562 48.628906 34.375 51.078125 L 38.578125 54.1875 L 37.078125 58.015625 C 36.367188 59.828125 35.742188 61.304688 35.203125 62.453125 C 34.992188 62.878906 34.820312 63.242188 34.6875 63.546875 L 33.734375 65.3125 L 27.640625 63.859375 C 21.960938 62.421875 15.578125 61.019531 8.484375 59.65625 C 1.390625 58.289062 -2.210938 57.726562 -2.328125 57.96875 C -2.441406 58.207031 -2.066406 58.601562 -1.203125 59.15625 C -1.003906 59.332031 -0.5625 59.640625 0.125 60.078125 C 0.8125 60.515625 1.71875 61.144531 2.84375 61.96875 C 3.96875 62.800781 4.941406 63.523438 5.765625 64.140625 C 19.304688 74.117188 27.363281 79.757812 29.9375 81.0625 Z M 29.9375 81.0625 "/></g></g></g><g fill="#d9d9d9" fill-opacity="1"><g transform="translate(602.822482, 533.759124)"><g><path d="M 19.234375 42.84375 C 18.660156 44 17.992188 45.046875 17.234375 45.984375 C 15.265625 48.441406 12.6875 50.367188 9.5 51.765625 C 4.789062 53.890625 -0.4375 53.457031 -6.1875 50.46875 C -7.65625 49.726562 -8.832031 49.003906 -9.71875 48.296875 C -10.289062 47.828125 -10.867188 47.1875 -11.453125 46.375 C -12.046875 45.570312 -12.117188 44.359375 -11.671875 42.734375 C -10.890625 39.835938 -8.046875 34.957031 -3.140625 28.09375 L 1.328125 21.90625 L -0.015625 21.34375 C -2.316406 20.351562 -4.585938 20.070312 -6.828125 20.5 C -8.222656 20.757812 -9.335938 21.191406 -10.171875 21.796875 C -11.015625 22.410156 -11.8125 23.191406 -12.5625 24.140625 C -12.894531 24.554688 -13.222656 25.019531 -13.546875 25.53125 C -15.796875 28.863281 -16.78125 33.128906 -16.5 38.328125 L -16.296875 42.25 L -17.78125 41.0625 C -19.34375 39.800781 -20.675781 38.125 -21.78125 36.03125 C -22.894531 33.9375 -23.523438 32.015625 -23.671875 30.265625 C -23.890625 26.921875 -23.367188 24.007812 -22.109375 21.53125 C -20.859375 19.0625 -19.6875 17.148438 -18.59375 15.796875 C -17.34375 14.234375 -15.90625 12.816406 -14.28125 11.546875 C -11.21875 9.117188 -7.820312 7.769531 -4.09375 7.5 C -1.019531 7.3125 1.664062 7.648438 3.96875 8.515625 C 6.269531 9.378906 8.878906 10.984375 11.796875 13.328125 C 16.804688 17.347656 19.988281 21.875 21.34375 26.90625 C 21.976562 29.226562 22.082031 31.882812 21.65625 34.875 C 21.226562 37.875 20.421875 40.53125 19.234375 42.84375 Z M 8.546875 41.578125 C 9.628906 41.085938 10.378906 40.578125 10.796875 40.046875 C 11.304688 39.421875 11.660156 38.503906 11.859375 37.296875 C 12.054688 36.085938 12.0625 35.066406 11.875 34.234375 C 11.664062 33.210938 11.226562 32.070312 10.5625 30.8125 C 9.90625 29.550781 9.375 28.753906 8.96875 28.421875 C 8.644531 28.171875 8.421875 28.097656 8.296875 28.203125 C 8.171875 28.316406 8.066406 28.425781 7.984375 28.53125 C 7.722656 28.84375 7.269531 29.507812 6.625 30.53125 C 3.425781 35.257812 1.703125 38.207031 1.453125 39.375 C 1.304688 39.863281 1.578125 40.382812 2.265625 40.9375 C 2.316406 40.96875 2.546875 41.125 2.953125 41.40625 C 3.359375 41.695312 4.070312 41.910156 5.09375 42.046875 C 6.257812 42.304688 7.410156 42.148438 8.546875 41.578125 Z M 8.546875 41.578125 "/></g></g></g><g fill="#d9d9d9" fill-opacity="1"><g transform="translate(577.909316, 566.124584)"><g><path d="M 31.890625 45.96875 L 38.078125 52.5625 L 35.671875 53.59375 C 34.367188 54.15625 32.210938 55.285156 29.203125 56.984375 L 25.171875 59.234375 L 17.9375 50.765625 C 13.332031 45.390625 10.863281 42.757812 10.53125 42.875 C 10.476562 42.914062 10.453125 42.9375 10.453125 42.9375 L 10.375 43 C 9.9375 43.71875 9.378906 44.769531 8.703125 46.15625 C 7.460938 48.707031 5.972656 50.722656 4.234375 52.203125 C 4.191406 52.242188 3.710938 52.628906 2.796875 53.359375 C 1.878906 54.097656 -0.0507812 54.851562 -3 55.625 C -7.164062 56.71875 -11.242188 56.46875 -15.234375 54.875 C -19.234375 53.28125 -22.5625 50.929688 -25.21875 47.828125 C -25.65625 47.316406 -26.066406 46.785156 -26.453125 46.234375 C -29.078125 42.660156 -30.796875 39.421875 -31.609375 36.515625 C -33.929688 28.128906 -31.691406 21.03125 -24.890625 15.21875 C -23.410156 13.945312 -21.835938 12.863281 -20.171875 11.96875 C -18.515625 11.082031 -15.34375 9.726562 -10.65625 7.90625 L -2.0625 4.546875 L -0.734375 6.40625 C 2.742188 11.28125 6.597656 16.328125 10.828125 21.546875 C 15.066406 26.765625 18.316406 30.691406 20.578125 33.328125 C 24.398438 37.804688 28.171875 42.019531 31.890625 45.96875 Z M -5.296875 43.203125 C -3.734375 43.179688 -2.25 42.570312 -0.84375 41.375 C 0.550781 40.1875 1.398438 38.835938 1.703125 37.328125 C 2.003906 35.859375 1.972656 34.59375 1.609375 33.53125 C 1.242188 32.476562 0.265625 30.96875 -1.328125 29 C -1.679688 28.582031 -2.03125 28.175781 -2.375 27.78125 C -3.6875 26.25 -5.066406 24.8125 -6.515625 23.46875 C -7.972656 22.125 -9.125 21.320312 -9.96875 21.0625 C -11.175781 20.789062 -12.203125 20.75 -13.046875 20.9375 C -13.890625 21.125 -14.875 21.648438 -16 22.515625 C -17.320312 23.640625 -18.210938 24.753906 -18.671875 25.859375 C -19.203125 27.710938 -19.148438 29.492188 -18.515625 31.203125 C -17.890625 32.921875 -16.410156 35.148438 -14.078125 37.890625 C -12.203125 40.078125 -10.648438 41.550781 -9.421875 42.3125 C -8.203125 43.070312 -6.828125 43.367188 -5.296875 43.203125 Z M -5.296875 43.203125 "/></g></g></g><g fill="#d9d9d9" fill-opacity="1"><g transform="translate(540.613959, 597.306437)"><g/></g></g><g fill="#d9d9d9" fill-opacity="1"><g transform="translate(519.804749, 611.869215)"><g><path d="M 12.5 60.546875 C 8.070312 62.421875 4.375 63.960938 1.40625 65.171875 C -2.070312 66.585938 -4.800781 67.609375 -6.78125 68.234375 C -8.757812 68.859375 -11.363281 69.03125 -14.59375 68.75 C -18.9375 68.351562 -22.972656 66.675781 -26.703125 63.71875 C -30.429688 60.757812 -33.660156 56.726562 -36.390625 51.625 C -37.109375 50.1875 -37.757812 48.753906 -38.34375 47.328125 C -40.9375 40.953125 -41.960938 34.625 -41.421875 28.34375 C -41.160156 25.988281 -40.5 23.492188 -39.4375 20.859375 C -38.375 18.222656 -37.128906 16.078125 -35.703125 14.421875 C -33.554688 12.097656 -31.523438 10.3125 -29.609375 9.0625 C -27.691406 7.820312 -23.664062 5.878906 -17.53125 3.234375 C -13.175781 1.316406 -10.070312 -0.015625 -8.21875 -0.765625 C -7.039062 -1.242188 -6.410156 -1.46875 -6.328125 -1.4375 C -6.328125 -1.4375 -6.300781 -1.375 -6.25 -1.25 C -6.039062 -0.75 -5.429688 1.097656 -4.421875 4.296875 C -1.660156 12.847656 1.53125 21.582031 5.15625 30.5 C 6.84375 34.65625 8.617188 38.84375 10.484375 43.0625 C 14.023438 51.082031 16.085938 55.625 16.671875 56.6875 L 17.671875 58.34375 Z M -10.65625 55.5625 C -9.375 55.6875 -7.46875 55.304688 -4.9375 54.421875 L -1.140625 53.09375 L -2.234375 49.859375 C -2.796875 48.140625 -3.753906 45.609375 -5.109375 42.265625 C -6.242188 39.484375 -8.164062 34.941406 -10.875 28.640625 C -13.582031 22.335938 -15.378906 18.535156 -16.265625 17.234375 C -16.617188 16.722656 -16.941406 16.507812 -17.234375 16.59375 C -17.523438 16.675781 -17.703125 16.726562 -17.765625 16.75 C -18.316406 16.976562 -19.265625 17.582031 -20.609375 18.5625 C -23.679688 20.75 -25.554688 23.5 -26.234375 26.8125 C -26.910156 30.125 -26.472656 34.3125 -24.921875 39.375 C -24.578125 40.394531 -24.203125 41.398438 -23.796875 42.390625 C -23.085938 44.128906 -22.296875 45.71875 -21.421875 47.15625 C -19.734375 50.070312 -18.039062 52.195312 -16.34375 53.53125 C -14.644531 54.875 -12.75 55.550781 -10.65625 55.5625 Z M -10.65625 55.5625 "/></g></g></g><g fill="#d9d9d9" fill-opacity="1"><g transform="translate(471.879159, 631.369682)"><g><path d="M -13 45.125 C -14.195312 45.644531 -15.390625 46.019531 -16.578125 46.25 C -19.660156 46.84375 -22.863281 46.640625 -26.1875 45.640625 C -31.164062 44.222656 -34.882812 40.519531 -37.34375 34.53125 C -37.976562 33.007812 -38.40625 31.691406 -38.625 30.578125 C -38.757812 29.859375 -38.789062 28.992188 -38.71875 27.984375 C -38.644531 26.984375 -37.910156 26.007812 -36.515625 25.0625 C -34.054688 23.351562 -28.734375 21.46875 -20.546875 19.40625 L -13.140625 17.578125 L -13.796875 16.265625 C -14.910156 14.035156 -16.460938 12.359375 -18.453125 11.234375 C -19.679688 10.535156 -20.8125 10.144531 -21.84375 10.0625 C -22.882812 9.988281 -24 10.066406 -25.1875 10.296875 C -25.707031 10.398438 -26.257812 10.546875 -26.84375 10.734375 C -30.71875 11.816406 -34.222656 14.4375 -37.359375 18.59375 L -39.71875 21.71875 L -40.09375 19.84375 C -40.46875 17.875 -40.40625 15.734375 -39.90625 13.421875 C -39.40625 11.109375 -38.644531 9.234375 -37.625 7.796875 C -35.613281 5.097656 -33.332031 3.210938 -30.78125 2.140625 C -28.238281 1.066406 -26.113281 0.363281 -24.40625 0.03125 C -22.4375 -0.34375 -20.425781 -0.488281 -18.375 -0.40625 C -14.46875 -0.289062 -11.003906 0.867188 -7.984375 3.078125 C -5.515625 4.921875 -3.675781 6.914062 -2.46875 9.0625 C -1.269531 11.21875 -0.316406 14.128906 0.390625 17.796875 C 1.609375 24.109375 1.109375 29.625 -1.109375 34.34375 C -2.117188 36.507812 -3.753906 38.597656 -6.015625 40.609375 C -8.273438 42.617188 -10.601562 44.125 -13 45.125 Z M -20.34375 37.265625 C -19.207031 37.585938 -18.304688 37.679688 -17.640625 37.546875 C -16.859375 37.398438 -16 36.929688 -15.0625 36.140625 C -14.125 35.347656 -13.457031 34.570312 -13.0625 33.8125 C -12.5625 32.875 -12.15625 31.710938 -11.84375 30.328125 C -11.53125 28.953125 -11.425781 28.003906 -11.53125 27.484375 C -11.601562 27.085938 -11.722656 26.890625 -11.890625 26.890625 C -12.054688 26.890625 -12.207031 26.898438 -12.34375 26.921875 C -12.738281 27.003906 -13.515625 27.226562 -14.671875 27.59375 C -20.160156 29.132812 -23.382812 30.265625 -24.34375 30.984375 C -24.757812 31.265625 -24.882812 31.835938 -24.71875 32.703125 C -24.707031 32.765625 -24.632812 33.035156 -24.5 33.515625 C -24.375 33.992188 -23.96875 34.613281 -23.28125 35.375 C -22.550781 36.332031 -21.570312 36.960938 -20.34375 37.265625 Z M -20.34375 37.265625 "/></g></g></g><g fill="#d9d9d9" fill-opacity="1"><g transform="translate(431.861946, 639.896462)"><g><path d="M -35.578125 42.515625 C -35.648438 42.710938 -35.851562 42.8125 -36.1875 42.8125 C -36.320312 42.8125 -36.488281 42.785156 -36.6875 42.734375 C -37.6875 42.597656 -40.160156 42.410156 -44.109375 42.171875 C -48.328125 41.929688 -50.4375 41.710938 -50.4375 41.515625 C -50.445312 41.253906 -49.460938 38.910156 -47.484375 34.484375 C -44.921875 28.773438 -42.488281 23.132812 -40.1875 17.5625 C -35.59375 6.5625 -32.90625 -0.273438 -32.125 -2.953125 C -32 -3.160156 -31.550781 -3.316406 -30.78125 -3.421875 C -30.007812 -3.523438 -28.21875 -3.585938 -25.40625 -3.609375 L -18.796875 -3.671875 L -17.859375 -0.46875 C -16.898438 2.46875 -14.207031 9.101562 -9.78125 19.4375 C -9.507812 20.039062 -8.738281 21.84375 -7.46875 24.84375 C -6.207031 27.84375 -5.378906 29.84375 -4.984375 30.84375 C -3.609375 34.039062 -2.515625 36.519531 -1.703125 38.28125 C -0.890625 40.039062 -0.476562 41.023438 -0.46875 41.234375 C -0.46875 41.359375 -2.335938 41.570312 -6.078125 41.875 C -9.828125 42.175781 -12.40625 42.332031 -13.8125 42.34375 L -15.125 42.359375 L -15.84375 39.75 C -16.875 36.144531 -18.734375 30.972656 -21.421875 24.234375 C -24.117188 17.503906 -25.566406 14.140625 -25.765625 14.140625 C -25.898438 14.140625 -26.34375 15.128906 -27.09375 17.109375 C -27.851562 19.085938 -28.785156 21.6875 -29.890625 24.90625 C -31.003906 28.125 -32.019531 31.3125 -32.9375 34.46875 C -33.332031 35.601562 -33.753906 36.859375 -34.203125 38.234375 C -34.660156 39.617188 -35.003906 40.644531 -35.234375 41.3125 C -35.460938 41.976562 -35.578125 42.378906 -35.578125 42.515625 Z M -35.578125 42.515625 "/></g></g></g><g fill="#d9d9d9" fill-opacity="1"><g transform="translate(385.598188, 640.503376)"><g><path d="M -28.359375 37.453125 C -29.648438 37.484375 -30.890625 37.394531 -32.078125 37.1875 C -35.179688 36.632812 -38.101562 35.300781 -40.84375 33.1875 C -44.976562 30.070312 -47.113281 25.273438 -47.25 18.796875 C -47.300781 17.160156 -47.226562 15.785156 -47.03125 14.671875 C -46.90625 13.941406 -46.625 13.125 -46.1875 12.21875 C -45.757812 11.3125 -44.726562 10.664062 -43.09375 10.28125 C -40.1875 9.5625 -34.539062 9.707031 -26.15625 10.71875 L -18.578125 11.671875 L -18.75 10.21875 C -18.976562 7.726562 -19.816406 5.609375 -21.265625 3.859375 C -22.160156 2.753906 -23.078125 1.976562 -24.015625 1.53125 C -24.953125 1.09375 -26.019531 0.769531 -27.21875 0.5625 C -27.738281 0.46875 -28.300781 0.40625 -28.90625 0.375 C -32.90625 -0.0078125 -37.117188 1.171875 -41.546875 3.921875 L -44.875 5.984375 L -44.546875 4.109375 C -44.191406 2.128906 -43.363281 0.15625 -42.0625 -1.8125 C -40.757812 -3.789062 -39.378906 -5.265625 -37.921875 -6.234375 C -35.078125 -8.035156 -32.269531 -8.976562 -29.5 -9.0625 C -26.738281 -9.144531 -24.5 -9.035156 -22.78125 -8.734375 C -20.8125 -8.378906 -18.878906 -7.796875 -16.984375 -6.984375 C -13.390625 -5.460938 -10.582031 -3.128906 -8.5625 0.015625 C -6.914062 2.609375 -5.921875 5.125 -5.578125 7.5625 C -5.234375 10 -5.390625 13.0625 -6.046875 16.75 C -7.171875 23.070312 -9.609375 28.039062 -13.359375 31.65625 C -15.085938 33.3125 -17.367188 34.664062 -20.203125 35.71875 C -23.046875 36.78125 -25.765625 37.359375 -28.359375 37.453125 Z M -32.390625 27.46875 C -31.429688 28.164062 -30.617188 28.578125 -29.953125 28.703125 C -29.160156 28.835938 -28.1875 28.703125 -27.03125 28.296875 C -25.875 27.898438 -24.976562 27.421875 -24.34375 26.859375 C -23.53125 26.171875 -22.734375 25.238281 -21.953125 24.0625 C -21.171875 22.882812 -20.734375 22.03125 -20.640625 21.5 C -20.566406 21.101562 -20.609375 20.875 -20.765625 20.8125 C -20.921875 20.75 -21.066406 20.707031 -21.203125 20.6875 C -21.597656 20.613281 -22.398438 20.539062 -23.609375 20.46875 C -29.285156 19.925781 -32.703125 19.820312 -33.859375 20.15625 C -34.347656 20.269531 -34.671875 20.757812 -34.828125 21.625 C -34.835938 21.6875 -34.867188 21.960938 -34.921875 22.453125 C -34.972656 22.953125 -34.816406 23.679688 -34.453125 24.640625 C -34.117188 25.785156 -33.429688 26.726562 -32.390625 27.46875 Z M -32.390625 27.46875 "/></g></g></g><g fill="#d9d9d9" fill-opacity="1"><g transform="translate(344.028859, 632.642366)"><g><path d="M -21.875 48.9375 C -21.9375 49.125 -22 49.316406 -22.0625 49.515625 L -22.109375 49.6875 C -22.191406 49.945312 -22.273438 50.207031 -22.359375 50.46875 L -22.421875 50.65625 C -22.441406 50.71875 -22.460938 50.78125 -22.484375 50.84375 L -22.546875 51.03125 C -22.585938 51.15625 -22.628906 51.285156 -22.671875 51.421875 L -22.75 51.703125 C -22.769531 51.773438 -22.789062 51.835938 -22.8125 51.890625 L -23.359375 53.625 C -23.378906 53.6875 -23.390625 53.71875 -23.390625 53.71875 L -23.609375 54.375 C -24.054688 55.78125 -24.429688 56.910156 -24.734375 57.765625 C -25.046875 58.617188 -25.269531 59.210938 -25.40625 59.546875 C -25.550781 59.878906 -25.691406 60.023438 -25.828125 59.984375 C -26.671875 59.367188 -29.503906 57.945312 -34.328125 55.71875 L -37.1875 54.375 L -35.609375 50.046875 C -34.441406 46.828125 -32.671875 41.492188 -30.296875 34.046875 C -29.109375 30.285156 -27.023438 23.613281 -24.046875 14.03125 C -21.078125 4.457031 -19.289062 -1.914062 -18.6875 -5.09375 C -17.96875 -8.445312 -17.5 -10.476562 -17.28125 -11.1875 C -17.195312 -11.4375 -17.15625 -11.5625 -17.15625 -11.5625 C -16.78125 -11.445312 -14.394531 -10.125 -10 -7.59375 C -5.601562 -5.070312 -3.3125 -3.679688 -3.125 -3.421875 L -4.390625 -0.453125 C -12.484375 21.253906 -18.3125 37.71875 -21.875 48.9375 Z M -21.875 48.9375 "/></g></g></g><g fill="#d9d9d9" fill-opacity="1"><g transform="translate(324.743459, 627.871845)"><g><path d="M -37.796875 28.625 C -39.054688 28.3125 -40.351562 27.832031 -41.6875 27.1875 C -42.820312 26.632812 -44.328125 25.71875 -46.203125 24.4375 C -48.078125 23.164062 -49.742188 21.515625 -51.203125 19.484375 C -52.453125 17.742188 -53.441406 15.75 -54.171875 13.5 C -54.910156 11.257812 -55.304688 9.046875 -55.359375 6.859375 C -55.359375 4.710938 -55.164062 2.816406 -54.78125 1.171875 C -54.40625 -0.460938 -53.664062 -2.421875 -52.5625 -4.703125 C -52.53125 -4.765625 -52.488281 -4.851562 -52.4375 -4.96875 C -49.457031 -11.113281 -44.925781 -15.09375 -38.84375 -16.90625 C -33 -18.6875 -27.128906 -18.148438 -21.234375 -15.296875 C -14.953125 -12.171875 -10.890625 -7.675781 -9.046875 -1.8125 C -7.203125 4.050781 -7.660156 9.84375 -10.421875 15.5625 C -10.660156 16.039062 -10.878906 16.492188 -11.078125 16.921875 C -13.859375 21.753906 -17.707031 25.265625 -22.625 27.453125 C -27.550781 29.640625 -32.609375 30.03125 -37.796875 28.625 Z M -39.53125 16.3125 C -38.5 17.101562 -37.757812 17.609375 -37.3125 17.828125 C -36.863281 18.046875 -36.101562 18.191406 -35.03125 18.265625 C -32.625 18.535156 -30.164062 17.828125 -27.65625 16.140625 C -26.5625 15.253906 -25.789062 14.507812 -25.34375 13.90625 C -24.894531 13.3125 -24.175781 12.140625 -23.1875 10.390625 C -22.832031 9.816406 -22.523438 9.257812 -22.265625 8.71875 C -21.390625 6.914062 -20.914062 5.328125 -20.84375 3.953125 C -20.59375 0.953125 -21.082031 -1.304688 -22.3125 -2.828125 C -23.539062 -4.347656 -24.671875 -5.359375 -25.703125 -5.859375 C -26.835938 -6.410156 -28.15625 -6.675781 -29.65625 -6.65625 C -31.082031 -6.757812 -32.226562 -6.609375 -33.09375 -6.203125 C -33.96875 -5.796875 -35.113281 -5.050781 -36.53125 -3.96875 C -37.507812 -3.175781 -38.207031 -2.488281 -38.625 -1.90625 C -39.050781 -1.332031 -39.71875 -0.113281 -40.625 1.75 C -41.5 3.550781 -42.023438 4.832031 -42.203125 5.59375 C -42.390625 6.363281 -42.492188 7.296875 -42.515625 8.390625 C -42.585938 9.929688 -42.328125 11.4375 -41.734375 12.90625 C -41.140625 14.375 -40.40625 15.507812 -39.53125 16.3125 Z M -39.53125 16.3125 "/></g></g></g><g fill="#d9d9d9" fill-opacity="1"><g transform="translate(282.776902, 608.339879)"><g><path d="M -47.171875 15.921875 C -48.691406 15.515625 -50.113281 14.804688 -51.4375 13.796875 C -51.550781 13.710938 -51.691406 13.609375 -51.859375 13.484375 C -54.828125 10.890625 -56.769531 7.625 -57.6875 3.6875 C -58.601562 -0.238281 -58.3125 -4.238281 -56.8125 -8.3125 C -56.1875 -10.019531 -55.347656 -11.585938 -54.296875 -13.015625 C -53.253906 -14.441406 -52.632812 -15.289062 -52.4375 -15.5625 C -50.820312 -17.6875 -49.351562 -19.296875 -48.03125 -20.390625 C -45.5625 -22.390625 -42.671875 -23.851562 -39.359375 -24.78125 C -36.054688 -25.707031 -33.101562 -25.894531 -30.5 -25.34375 C -28.0625 -24.914062 -25.773438 -23.890625 -23.640625 -22.265625 C -23.160156 -21.898438 -22.171875 -21.019531 -20.671875 -19.625 C -19.171875 -18.238281 -18.03125 -16.070312 -17.25 -13.125 L -16.65625 -10.40625 L -13.203125 -14.953125 C -10.972656 -17.878906 -8.40625 -21.476562 -5.5 -25.75 C -3.382812 -28.75 -2.019531 -30.644531 -1.40625 -31.4375 C -1.207031 -31.707031 -1.109375 -31.84375 -1.109375 -31.84375 C -1.066406 -31.894531 -0.832031 -31.757812 -0.40625 -31.4375 C 0.445312 -30.789062 2.238281 -29.222656 4.96875 -26.734375 L 10.6875 -21.5 L 8.375 -18.953125 C 3.4375 -13.554688 -1.171875 -8.097656 -5.453125 -2.578125 C -9.742188 2.941406 -12.578125 6.601562 -13.953125 8.40625 C -18.804688 14.800781 -22.582031 20.035156 -25.28125 24.109375 C -26.789062 26.421875 -27.847656 27.976562 -28.453125 28.78125 C -28.734375 29.15625 -28.898438 29.320312 -28.953125 29.28125 C -28.953125 29.28125 -28.976562 29.257812 -29.03125 29.21875 C -29.40625 28.9375 -31.082031 27.328125 -34.0625 24.390625 L -39.09375 19.421875 L -38.203125 18.078125 C -37.765625 17.398438 -37.679688 16.960938 -37.953125 16.765625 C -38.109375 16.640625 -38.394531 16.625 -38.8125 16.71875 C -39.414062 16.851562 -40.585938 16.820312 -42.328125 16.625 C -44.066406 16.4375 -45.679688 16.203125 -47.171875 15.921875 Z M -43.03125 5.703125 C -42.664062 6.316406 -42.1875 6.847656 -41.59375 7.296875 C -40.851562 7.867188 -39.75 8.269531 -38.28125 8.5 C -36.820312 8.726562 -34.992188 8.332031 -32.796875 7.3125 C -31.265625 6.625 -29.671875 5.191406 -28.015625 3.015625 C -26.921875 1.578125 -26.226562 0.53125 -25.9375 -0.125 C -25.644531 -0.78125 -25.410156 -1.664062 -25.234375 -2.78125 C -24.960938 -4.769531 -25.140625 -6.632812 -25.765625 -8.375 C -26.390625 -10.113281 -27.125 -11.300781 -27.96875 -11.9375 C -28.1875 -12.101562 -28.414062 -12.242188 -28.65625 -12.359375 C -29.46875 -12.710938 -30.632812 -12.773438 -32.15625 -12.546875 C -33.6875 -12.328125 -34.984375 -11.90625 -36.046875 -11.28125 C -37.398438 -10.476562 -38.925781 -8.957031 -40.625 -6.71875 C -40.75 -6.5625 -41.285156 -5.832031 -42.234375 -4.53125 C -43.179688 -3.226562 -43.757812 -1.894531 -43.96875 -0.53125 C -44.382812 1.90625 -44.070312 3.984375 -43.03125 5.703125 Z M -43.03125 5.703125 "/></g></g></g><g fill="#d9d9d9" fill-opacity="1"><g transform="translate(243.916173, 578.946468)"><g><path d="M -45.390625 12.0625 C -46.441406 11.289062 -47.367188 10.457031 -48.171875 9.5625 C -50.273438 7.21875 -51.753906 4.367188 -52.609375 1.015625 C -53.953125 -3.984375 -52.6875 -9.082031 -48.8125 -14.28125 C -47.84375 -15.59375 -46.9375 -16.625 -46.09375 -17.375 C -45.539062 -17.875 -44.8125 -18.347656 -43.90625 -18.796875 C -43.007812 -19.242188 -41.800781 -19.117188 -40.28125 -18.421875 C -37.550781 -17.191406 -33.195312 -13.601562 -27.21875 -7.65625 L -21.828125 -2.234375 L -21.046875 -3.46875 C -19.710938 -5.582031 -19.078125 -7.78125 -19.140625 -10.0625 C -19.160156 -11.476562 -19.40625 -12.644531 -19.875 -13.5625 C -20.34375 -14.488281 -20.976562 -15.40625 -21.78125 -16.3125 C -22.132812 -16.707031 -22.539062 -17.101562 -23 -17.5 C -25.925781 -20.257812 -29.976562 -21.921875 -35.15625 -22.484375 L -39.0625 -22.90625 L -37.640625 -24.1875 C -36.140625 -25.519531 -34.269531 -26.5625 -32.03125 -27.3125 C -29.789062 -28.070312 -27.796875 -28.382812 -26.046875 -28.25 C -22.703125 -27.914062 -19.914062 -26.929688 -17.6875 -25.296875 C -15.457031 -23.671875 -13.757812 -22.207031 -12.59375 -20.90625 C -11.257812 -19.414062 -10.09375 -17.769531 -9.09375 -15.96875 C -7.1875 -12.5625 -6.398438 -8.992188 -6.734375 -5.265625 C -7.046875 -2.203125 -7.816406 0.390625 -9.046875 2.515625 C -10.273438 4.648438 -12.28125 6.96875 -15.0625 9.46875 C -19.851562 13.769531 -24.835938 16.1875 -30.015625 16.71875 C -32.390625 16.957031 -35.019531 16.625 -37.90625 15.71875 C -40.800781 14.820312 -43.296875 13.601562 -45.390625 12.0625 Z M -42.421875 1.71875 C -42.109375 2.863281 -41.722656 3.6875 -41.265625 4.1875 C -40.734375 4.78125 -39.890625 5.273438 -38.734375 5.671875 C -37.578125 6.066406 -36.570312 6.238281 -35.71875 6.1875 C -34.65625 6.144531 -33.453125 5.898438 -32.109375 5.453125 C -30.765625 5.003906 -29.894531 4.601562 -29.5 4.25 C -29.195312 3.976562 -29.085938 3.769531 -29.171875 3.625 C -29.253906 3.476562 -29.34375 3.359375 -29.4375 3.265625 C -29.707031 2.960938 -30.296875 2.40625 -31.203125 1.59375 C -35.347656 -2.320312 -37.976562 -4.5 -39.09375 -4.9375 C -39.550781 -5.15625 -40.101562 -4.972656 -40.75 -4.390625 C -40.800781 -4.347656 -41 -4.144531 -41.34375 -3.78125 C -41.695312 -3.425781 -42.023438 -2.753906 -42.328125 -1.765625 C -42.753906 -0.660156 -42.785156 0.5 -42.421875 1.71875 Z M -42.421875 1.71875 "/></g></g></g><g fill="#d9d9d9" fill-opacity="1"><g transform="translate(216.101832, 548.036394)"><g><path d="M -49.546875 0.640625 C -51.179688 -0.0664062 -52.148438 -0.597656 -52.453125 -0.953125 C -52.742188 -1.398438 -52.910156 -2.484375 -52.953125 -4.203125 C -52.992188 -5.929688 -52.859375 -7.535156 -52.546875 -9.015625 C -52.109375 -10.804688 -51.804688 -11.757812 -51.640625 -11.875 C -51.128906 -12.195312 -47.96875 -11.0625 -42.15625 -8.46875 C -36.726562 -5.988281 -32.984375 -4.5 -30.921875 -4 L -29.15625 -3.71875 L -24.1875 -6.9375 C -17.894531 -11 -12.785156 -14.78125 -8.859375 -18.28125 C -8.304688 -18.789062 -7.890625 -19.140625 -7.609375 -19.328125 C -7.265625 -19.546875 -7.03125 -19.613281 -6.90625 -19.53125 C -6.75 -19.550781 -6.5625 -19.390625 -6.34375 -19.046875 C -5.976562 -18.492188 -5.515625 -17.523438 -4.953125 -16.140625 C -3.972656 -13.910156 -2.757812 -11.554688 -1.3125 -9.078125 L 0.84375 -5.328125 L -0.25 -4.984375 C -1.125 -4.648438 -5.0625 -2.257812 -12.0625 2.1875 C -19.070312 6.644531 -23.835938 9.6875 -26.359375 11.3125 C -31.359375 14.550781 -34.359375 16.570312 -35.359375 17.375 C -36.796875 18.46875 -37.738281 19.160156 -38.1875 19.453125 C -38.351562 19.554688 -38.4375 19.609375 -38.4375 19.609375 C -38.4375 19.609375 -38.457031 19.578125 -38.5 19.515625 C -38.71875 19.179688 -39.238281 18.003906 -40.0625 15.984375 C -41.125 13.492188 -42.050781 11.507812 -42.84375 10.03125 C -43.851562 7.976562 -44.34375 6.765625 -44.3125 6.390625 C -44.28125 6.015625 -43.929688 5.609375 -43.265625 5.171875 C -42.984375 4.992188 -42.65625 4.816406 -42.28125 4.640625 C -41.726562 4.367188 -41.285156 4.125 -40.953125 3.90625 C -40.503906 3.625 -40.316406 3.429688 -40.390625 3.328125 C -40.460938 3.210938 -41.582031 2.890625 -43.75 2.359375 C -45.800781 2.023438 -47.734375 1.453125 -49.546875 0.640625 Z M -49.546875 0.640625 "/></g></g></g><g fill="#d9d9d9" fill-opacity="1"><g transform="translate(197.671072, 519.550723)"><g/></g></g><g fill="#d9d9d9" fill-opacity="1"><g transform="translate(185.94953, 495.525754)"><g/></g></g><g fill="#d9d9d9" fill-opacity="1"><g transform="translate(177.012102, 470.332224)"><g/></g></g><g fill="#d9d9d9" fill-opacity="1"><g transform="translate(171.098974, 443.913211)"><g><path d="M -46.40625 -0.265625 C -57.351562 1.117188 -62.847656 1.644531 -62.890625 1.3125 C -62.859375 0.96875 -62.984375 -1.238281 -63.265625 -5.3125 C -63.628906 -9.25 -63.722656 -11.394531 -63.546875 -11.75 C -63.390625 -12.101562 -60.800781 -12.414062 -55.78125 -12.6875 C -47.019531 -13.195312 -36.351562 -14.238281 -23.78125 -15.8125 C -11.207031 -17.394531 -0.875 -19.015625 7.21875 -20.671875 C 9.84375 -21.191406 11.195312 -21.421875 11.28125 -21.359375 C 11.488281 -21.316406 11.628906 -19.582031 11.703125 -16.15625 C 11.691406 -15.082031 11.71875 -12.59375 11.78125 -8.6875 C 11.832031 -7.082031 11.804688 -6.203125 11.703125 -6.046875 C 11.503906 -5.890625 9.867188 -5.765625 6.796875 -5.671875 C 1.703125 -5.390625 -6.398438 -4.695312 -17.515625 -3.59375 C -28.628906 -2.488281 -38.257812 -1.378906 -46.40625 -0.265625 Z M -46.40625 -0.265625 "/></g></g></g><g fill="#d9d9d9" fill-opacity="1"><g transform="translate(168.310151, 423.427332)"><g/></g></g><g fill="#d9d9d9" fill-opacity="1"><g transform="translate(167.61586, 396.704479)"><g/></g></g><g fill="#d9d9d9" fill-opacity="1"><g transform="translate(167.374849, 371.887526)"><g><path d="M -56.25 -23.8125 C -56.445312 -23.863281 -55.769531 -26.515625 -54.21875 -31.765625 L -51.890625 -39.671875 L -49.0625 -39.984375 C -44.664062 -40.492188 -39.296875 -41.332031 -32.953125 -42.5 C -26.617188 -43.664062 -23.40625 -44.410156 -23.3125 -44.734375 C -23.132812 -45.316406 -27.039062 -49.191406 -35.03125 -56.359375 L -44.546875 -64.90625 L -42.9375 -69.671875 C -41.957031 -73.003906 -40.878906 -75.578125 -39.703125 -77.390625 L -37.921875 -80.21875 L -36.1875 -79.390625 C -34.082031 -78.492188 -30.117188 -77.164062 -24.296875 -75.40625 C -18.472656 -73.65625 -14.691406 -72.523438 -12.953125 -72.015625 C -5.972656 -69.953125 -0.679688 -68.492188 2.921875 -67.640625 C 13.171875 -65.097656 19.742188 -63.644531 22.640625 -63.28125 L 23.953125 -63.109375 L 23.359375 -61.078125 C 23.035156 -59.992188 21.976562 -57.269531 20.1875 -52.90625 L 17.671875 -46.78125 L 16.5 -47.125 C 15.800781 -47.332031 13.523438 -48.207031 9.671875 -49.75 C 5.578125 -51.238281 -0.585938 -53.269531 -8.828125 -55.84375 L -21.578125 -59.8125 L -20.390625 -58.515625 C -19.773438 -57.765625 -16.9375 -55.113281 -11.875 -50.5625 L -4.515625 -43.890625 L -5.8125 -39.46875 C -6.664062 -36.375 -7.085938 -34.722656 -7.078125 -34.515625 C -7.171875 -34.191406 -8.492188 -33.953125 -11.046875 -33.796875 C -13.347656 -33.566406 -16.695312 -33.140625 -21.09375 -32.515625 C -25.5 -31.898438 -28.273438 -31.414062 -29.421875 -31.0625 L -31.046875 -30.59375 L -15.078125 -26.1875 C -4.265625 -23.144531 2.722656 -21.300781 5.890625 -20.65625 C 8.203125 -20.25 9.707031 -19.941406 10.40625 -19.734375 C 10.664062 -19.660156 10.820312 -19.578125 10.875 -19.484375 C 10.875 -19.484375 10.851562 -19.421875 10.8125 -19.296875 C 10.613281 -18.585938 9.734375 -16.550781 8.171875 -13.1875 C 6.378906 -9.457031 5.320312 -7.046875 5 -5.953125 C 4.957031 -5.828125 4.929688 -5.734375 4.921875 -5.671875 C 4.648438 -4.773438 4.410156 -4.316406 4.203125 -4.296875 C 4.109375 -4.253906 3.835938 -4.300781 3.390625 -4.4375 C 2.554688 -4.675781 1.046875 -5.226562 -1.140625 -6.09375 C -9.273438 -9.46875 -20.71875 -13.328125 -35.46875 -17.671875 C -36.4375 -17.960938 -37.429688 -18.257812 -38.453125 -18.5625 Z M -56.25 -23.8125 "/></g></g></g><g fill="#d9d9d9" fill-opacity="1"><g transform="translate(186.341251, 308.993235)"><g><path d="M -25.90625 -39.71875 C -25.5 -40.945312 -24.925781 -42.203125 -24.1875 -43.484375 C -23.5625 -44.578125 -22.546875 -46.015625 -21.140625 -47.796875 C -19.734375 -49.578125 -17.960938 -51.125 -15.828125 -52.4375 C -14.023438 -53.5625 -11.972656 -54.410156 -9.671875 -54.984375 C -7.378906 -55.554688 -5.144531 -55.800781 -2.96875 -55.71875 C -0.832031 -55.5625 1.039062 -55.234375 2.65625 -54.734375 C 4.269531 -54.234375 6.175781 -53.351562 8.375 -52.09375 C 8.425781 -52.0625 8.515625 -52.015625 8.640625 -51.953125 C 14.554688 -48.554688 18.203125 -43.757812 19.578125 -37.5625 C 20.953125 -31.613281 20.007812 -25.796875 16.75 -20.109375 C 13.195312 -14.066406 8.425781 -10.332031 2.4375 -8.90625 C -3.539062 -7.476562 -9.289062 -8.34375 -14.8125 -11.5 C -15.269531 -11.757812 -15.703125 -12.007812 -16.109375 -12.25 C -20.722656 -15.351562 -23.945312 -19.4375 -25.78125 -24.5 C -27.625 -29.5625 -27.664062 -34.632812 -25.90625 -39.71875 Z M -13.5 -40.578125 C -14.363281 -39.609375 -14.914062 -38.90625 -15.15625 -38.46875 C -15.40625 -38.03125 -15.609375 -37.285156 -15.765625 -36.234375 C -16.203125 -33.847656 -15.671875 -31.335938 -14.171875 -28.703125 C -13.367188 -27.554688 -12.679688 -26.738281 -12.109375 -26.25 C -11.535156 -25.769531 -10.414062 -24.96875 -8.75 -23.84375 C -8.195312 -23.46875 -7.660156 -23.128906 -7.140625 -22.828125 C -5.410156 -21.828125 -3.859375 -21.242188 -2.484375 -21.078125 C 0.484375 -20.609375 2.769531 -20.9375 4.375 -22.0625 C 5.976562 -23.1875 7.066406 -24.242188 7.640625 -25.234375 C 8.265625 -26.328125 8.625 -27.617188 8.71875 -29.109375 C 8.914062 -30.535156 8.84375 -31.691406 8.5 -32.578125 C 8.164062 -33.472656 7.503906 -34.664062 6.515625 -36.15625 C 5.785156 -37.1875 5.148438 -37.929688 4.609375 -38.390625 C 4.066406 -38.859375 2.894531 -39.609375 1.09375 -40.640625 C -0.632812 -41.640625 -1.875 -42.257812 -2.625 -42.5 C -3.375 -42.738281 -4.300781 -42.898438 -5.40625 -42.984375 C -6.925781 -43.171875 -8.441406 -43.019531 -9.953125 -42.53125 C -11.460938 -42.050781 -12.644531 -41.398438 -13.5 -40.578125 Z M -13.5 -40.578125 "/></g></g></g><g fill="#d9d9d9" fill-opacity="1"><g transform="translate(208.841123, 268.494942)"><g><path d="M -38.203125 -40.875 L -45.265625 -46.515625 L -43.03125 -47.875 C -41.832031 -48.625 -39.863281 -50.0625 -37.125 -52.1875 L -33.46875 -54.984375 L -25.078125 -47.65625 C -19.742188 -42.988281 -16.914062 -40.738281 -16.59375 -40.90625 C -16.550781 -40.957031 -16.53125 -40.984375 -16.53125 -40.984375 L -16.46875 -41.0625 C -16.144531 -41.84375 -15.742188 -42.957031 -15.265625 -44.40625 C -14.421875 -47.113281 -13.242188 -49.328125 -11.734375 -51.046875 C -11.703125 -51.097656 -11.28125 -51.550781 -10.46875 -52.40625 C -9.664062 -53.257812 -7.863281 -54.28125 -5.0625 -55.46875 C -1.09375 -57.15625 2.984375 -57.5 7.171875 -56.5 C 11.359375 -55.5 14.984375 -53.65625 18.046875 -50.96875 C 18.554688 -50.519531 19.039062 -50.050781 19.5 -49.5625 C 22.601562 -46.40625 24.769531 -43.445312 26 -40.6875 C 29.507812 -32.738281 28.316406 -25.390625 22.421875 -18.640625 C 21.140625 -17.179688 19.742188 -15.890625 18.234375 -14.765625 C 16.722656 -13.640625 13.78125 -11.84375 9.40625 -9.375 L 1.375 -4.796875 L -0.203125 -6.453125 C -4.347656 -10.773438 -8.894531 -15.207031 -13.84375 -19.75 C -18.789062 -24.300781 -22.570312 -27.722656 -25.1875 -30.015625 C -29.625 -33.890625 -33.960938 -37.507812 -38.203125 -40.875 Z M -1 -43.5 C -2.539062 -43.257812 -3.914062 -42.445312 -5.125 -41.0625 C -6.332031 -39.675781 -6.976562 -38.222656 -7.0625 -36.703125 C -7.15625 -35.191406 -6.945312 -33.941406 -6.4375 -32.953125 C -5.925781 -31.972656 -4.734375 -30.617188 -2.859375 -28.890625 C -2.453125 -28.535156 -2.046875 -28.179688 -1.640625 -27.828125 C -0.128906 -26.503906 1.4375 -25.28125 3.0625 -24.15625 C 4.695312 -23.039062 5.953125 -22.421875 6.828125 -22.296875 C 8.066406 -22.179688 9.085938 -22.28125 9.890625 -22.59375 C 10.691406 -22.914062 11.582031 -23.578125 12.5625 -24.578125 C 13.707031 -25.890625 14.4375 -27.125 14.75 -28.28125 C 14.988281 -30.1875 14.675781 -31.941406 13.8125 -33.546875 C 12.945312 -35.148438 11.160156 -37.140625 8.453125 -39.515625 C 6.285156 -41.410156 4.539062 -42.644531 3.21875 -43.21875 C 1.894531 -43.800781 0.488281 -43.894531 -1 -43.5 Z M -1 -43.5 "/></g></g></g><g fill="#d9d9d9" fill-opacity="1"><g transform="translate(241.600982, 232.17381)"><g><path d="M -31.609375 -52.421875 C -31.265625 -53.148438 -30.765625 -53.796875 -30.109375 -54.359375 C -29.441406 -54.929688 -28.398438 -55.46875 -26.984375 -55.96875 C -25.578125 -56.476562 -24.160156 -56.410156 -22.734375 -55.765625 C -22.097656 -55.441406 -21.519531 -54.972656 -21 -54.359375 C -20.6875 -54.003906 -20.382812 -53.601562 -20.09375 -53.15625 C -19.226562 -51.53125 -18.863281 -49.816406 -19 -48.015625 C -19.144531 -46.222656 -19.800781 -44.828125 -20.96875 -43.828125 C -22.03125 -42.921875 -23.332031 -42.445312 -24.875 -42.40625 C -26.425781 -42.363281 -27.710938 -42.601562 -28.734375 -43.125 C -29.765625 -43.65625 -30.585938 -44.273438 -31.203125 -44.984375 C -31.460938 -45.296875 -31.832031 -45.859375 -32.3125 -46.671875 C -32.789062 -47.492188 -32.910156 -48.535156 -32.671875 -49.796875 C -32.347656 -50.859375 -31.992188 -51.734375 -31.609375 -52.421875 Z M -16.078125 -28.078125 C -16.210938 -28.222656 -16.347656 -28.378906 -16.484375 -28.546875 L -16.53125 -28.609375 C -16.707031 -28.816406 -16.882812 -29.019531 -17.0625 -29.21875 L -17.125 -29.296875 C -17.164062 -29.347656 -17.210938 -29.398438 -17.265625 -29.453125 L -17.390625 -29.609375 C -17.472656 -29.703125 -17.554688 -29.800781 -17.640625 -29.90625 L -17.78125 -30.0625 C -17.820312 -30.101562 -17.863281 -30.15625 -17.90625 -30.21875 L -19.015625 -31.515625 L -19.140625 -31.65625 L -19.40625 -31.96875 C -20.269531 -32.988281 -20.953125 -33.816406 -21.453125 -34.453125 C -21.953125 -35.085938 -22.296875 -35.539062 -22.484375 -35.8125 C -22.671875 -36.082031 -22.71875 -36.257812 -22.625 -36.34375 C -21.601562 -36.6875 -18.910156 -38.375 -14.546875 -41.40625 L -11.984375 -43.1875 L -9.453125 -39.9375 C -7.566406 -37.519531 -5.078125 -34.507812 -1.984375 -30.90625 C -0.421875 -29.070312 2.195312 -26.050781 5.875 -21.84375 C 9.5625 -17.632812 12.488281 -14.570312 14.65625 -12.65625 C 16.851562 -10.59375 18.191406 -9.28125 18.671875 -8.71875 C 18.804688 -8.5625 18.875 -8.484375 18.875 -8.484375 C 18.875 -8.484375 18.851562 -8.460938 18.8125 -8.421875 C 18.5 -8.160156 16.164062 -6.785156 11.8125 -4.296875 C 7.46875 -1.804688 5.128906 -0.554688 4.796875 -0.546875 L 3.15625 -2.953125 C -2.84375 -11.722656 -9.253906 -20.097656 -16.078125 -28.078125 Z M -16.078125 -28.078125 "/></g></g></g><g fill="#d9d9d9" fill-opacity="1"><g transform="translate(257.70188, 218.252393)"><g><path d="M -25.921875 -46.921875 C -26.035156 -47.085938 -26.148438 -47.253906 -26.265625 -47.421875 L -26.375 -47.578125 C -26.53125 -47.796875 -26.691406 -48.015625 -26.859375 -48.234375 L -26.96875 -48.40625 C -27.007812 -48.457031 -27.046875 -48.503906 -27.078125 -48.546875 L -27.203125 -48.71875 C -27.273438 -48.832031 -27.351562 -48.941406 -27.4375 -49.046875 L -27.609375 -49.296875 C -27.648438 -49.347656 -27.6875 -49.398438 -27.71875 -49.453125 L -28.765625 -50.9375 C -28.804688 -50.988281 -28.828125 -51.015625 -28.828125 -51.015625 L -28.9375 -51.171875 L -29.234375 -51.59375 C -30.078125 -52.789062 -30.742188 -53.765625 -31.234375 -54.515625 C -31.734375 -55.273438 -32.078125 -55.8125 -32.265625 -56.125 C -32.453125 -56.445312 -32.492188 -56.648438 -32.390625 -56.734375 C -31.378906 -57.023438 -28.523438 -58.429688 -23.828125 -60.953125 L -21.0625 -62.421875 L -18.546875 -58.546875 C -16.671875 -55.691406 -13.472656 -51.078125 -8.953125 -44.703125 C -6.671875 -41.484375 -2.601562 -35.800781 3.25 -27.65625 C 9.113281 -19.519531 13.132812 -14.253906 15.3125 -11.859375 C 17.570312 -9.273438 18.914062 -7.679688 19.34375 -7.078125 C 19.488281 -6.867188 19.5625 -6.765625 19.5625 -6.765625 C 19.238281 -6.535156 16.75 -5.421875 12.09375 -3.421875 C 7.4375 -1.421875 4.945312 -0.425781 4.625 -0.4375 L 2.984375 -3.234375 C -9.472656 -22.765625 -19.109375 -37.328125 -25.921875 -46.921875 Z M -25.921875 -46.921875 "/></g></g></g><g fill="#d9d9d9" fill-opacity="1"><g transform="translate(273.526083, 205.795712)"><g><path d="M -0.625 -46.96875 C 0.375 -47.800781 1.410156 -48.5 2.484375 -49.0625 C 5.265625 -50.53125 8.390625 -51.269531 11.859375 -51.28125 C 17.035156 -51.363281 21.660156 -48.890625 25.734375 -43.859375 C 26.785156 -42.597656 27.578125 -41.460938 28.109375 -40.453125 C 28.453125 -39.804688 28.734375 -38.988281 28.953125 -38 C 29.171875 -37.019531 28.753906 -35.875 27.703125 -34.5625 C 25.835938 -32.21875 21.289062 -28.875 14.0625 -24.53125 L 7.5 -20.625 L 8.515625 -19.5625 C 10.210938 -17.75 12.179688 -16.59375 14.421875 -16.09375 C 15.796875 -15.78125 16.988281 -15.738281 18 -15.96875 C 19.007812 -16.195312 20.050781 -16.59375 21.125 -17.15625 C 21.59375 -17.40625 22.078125 -17.703125 22.578125 -18.046875 C 25.972656 -20.203125 28.570312 -23.726562 30.375 -28.625 L 31.734375 -32.28125 L 32.625 -30.59375 C 33.5625 -28.820312 34.125 -26.753906 34.3125 -24.390625 C 34.5 -22.035156 34.3125 -20.023438 33.75 -18.359375 C 32.613281 -15.191406 30.984375 -12.726562 28.859375 -10.96875 C 26.734375 -9.207031 24.898438 -7.921875 23.359375 -7.109375 C 21.585938 -6.171875 19.703125 -5.441406 17.703125 -4.921875 C 13.929688 -3.898438 10.28125 -4.007812 6.75 -5.25 C 3.851562 -6.3125 1.523438 -7.695312 -0.234375 -9.40625 C -2.003906 -11.113281 -3.765625 -13.617188 -5.515625 -16.921875 C -8.515625 -22.609375 -9.632812 -28.03125 -8.875 -33.1875 C -8.539062 -35.5625 -7.582031 -38.035156 -6 -40.609375 C -4.414062 -43.191406 -2.625 -45.3125 -0.625 -46.96875 Z M 8.703125 -41.546875 C 7.515625 -41.523438 6.617188 -41.359375 6.015625 -41.046875 C 5.304688 -40.671875 4.617188 -39.96875 3.953125 -38.9375 C 3.285156 -37.914062 2.875 -36.984375 2.71875 -36.140625 C 2.5 -35.109375 2.441406 -33.882812 2.546875 -32.46875 C 2.648438 -31.050781 2.828125 -30.109375 3.078125 -29.640625 C 3.265625 -29.273438 3.4375 -29.117188 3.59375 -29.171875 C 3.757812 -29.222656 3.898438 -29.28125 4.015625 -29.34375 C 4.378906 -29.53125 5.0625 -29.96875 6.0625 -30.65625 C 10.875 -33.71875 13.628906 -35.734375 14.328125 -36.703125 C 14.648438 -37.097656 14.609375 -37.6875 14.203125 -38.46875 C 14.171875 -38.519531 14.019531 -38.753906 13.75 -39.171875 C 13.488281 -39.597656 12.914062 -40.078125 12.03125 -40.609375 C 11.0625 -41.304688 9.953125 -41.617188 8.703125 -41.546875 Z M 8.703125 -41.546875 "/></g></g></g><g fill="#d9d9d9" fill-opacity="1"><g transform="translate(310.78457, 186.466632)"><g/></g></g><g fill="#d9d9d9" fill-opacity="1"><g transform="translate(334.162438, 176.529859)"><g><path d="M 0.328125 -61.828125 C 5.046875 -62.742188 8.988281 -63.484375 12.15625 -64.046875 C 15.84375 -64.710938 18.71875 -65.144531 20.78125 -65.34375 C 22.851562 -65.539062 25.429688 -65.171875 28.515625 -64.234375 C 32.679688 -62.929688 36.285156 -60.445312 39.328125 -56.78125 C 42.367188 -53.125 44.691406 -48.519531 46.296875 -42.96875 C 46.710938 -41.40625 47.054688 -39.863281 47.328125 -38.34375 C 48.546875 -31.570312 48.238281 -25.164062 46.40625 -19.125 C 45.644531 -16.875 44.472656 -14.570312 42.890625 -12.21875 C 41.304688 -9.875 39.648438 -8.035156 37.921875 -6.703125 C 35.335938 -4.878906 32.976562 -3.554688 30.84375 -2.734375 C 28.71875 -1.910156 24.375 -0.84375 17.8125 0.46875 C 13.164062 1.4375 9.859375 2.097656 7.890625 2.453125 C 6.640625 2.679688 5.972656 2.769531 5.890625 2.71875 C 5.890625 2.71875 5.878906 2.648438 5.859375 2.515625 C 5.765625 1.984375 5.550781 0.046875 5.21875 -3.296875 C 4.289062 -12.222656 2.976562 -21.425781 1.28125 -30.90625 C 0.488281 -35.320312 -0.382812 -39.789062 -1.34375 -44.3125 C -3.132812 -52.882812 -4.207031 -57.75 -4.5625 -58.90625 L -5.1875 -60.734375 Z M 21.9375 -52.140625 C 20.707031 -52.523438 18.765625 -52.550781 16.109375 -52.21875 L 12.125 -51.703125 L 12.515625 -48.3125 C 12.710938 -46.507812 13.128906 -43.835938 13.765625 -40.296875 C 14.296875 -37.328125 15.234375 -32.476562 16.578125 -25.75 C 17.921875 -19.03125 18.890625 -14.941406 19.484375 -13.484375 C 19.722656 -12.910156 19.992188 -12.632812 20.296875 -12.65625 C 20.597656 -12.675781 20.78125 -12.691406 20.84375 -12.703125 C 21.4375 -12.816406 22.488281 -13.210938 24 -13.890625 C 27.46875 -15.390625 29.875 -17.6875 31.21875 -20.78125 C 32.570312 -23.882812 33.015625 -28.078125 32.546875 -33.359375 C 32.421875 -34.421875 32.265625 -35.476562 32.078125 -36.53125 C 31.742188 -38.382812 31.289062 -40.101562 30.71875 -41.6875 C 29.6875 -44.894531 28.472656 -47.328125 27.078125 -48.984375 C 25.691406 -50.640625 23.976562 -51.691406 21.9375 -52.140625 Z M 21.9375 -52.140625 "/></g></g></g><g fill="#d9d9d9" fill-opacity="1"><g transform="translate(385.099874, 167.362534)"><g><path d="M 22.078125 -41.46875 C 23.347656 -41.707031 24.585938 -41.816406 25.796875 -41.796875 C 28.941406 -41.742188 32.039062 -40.890625 35.09375 -39.234375 C 39.664062 -36.816406 42.53125 -32.421875 43.6875 -26.046875 C 44 -24.429688 44.144531 -23.054688 44.125 -21.921875 C 44.113281 -21.179688 43.960938 -20.328125 43.671875 -19.359375 C 43.390625 -18.398438 42.472656 -17.597656 40.921875 -16.953125 C 38.160156 -15.796875 32.566406 -15.054688 24.140625 -14.734375 L 16.5 -14.46875 L 16.890625 -13.0625 C 17.515625 -10.644531 18.679688 -8.679688 20.390625 -7.171875 C 21.453125 -6.222656 22.476562 -5.601562 23.46875 -5.3125 C 24.46875 -5.03125 25.570312 -4.878906 26.78125 -4.859375 C 27.3125 -4.847656 27.878906 -4.875 28.484375 -4.9375 C 32.503906 -5.195312 36.476562 -7.035156 40.40625 -10.453125 L 43.375 -13.015625 L 43.34375 -11.109375 C 43.3125 -9.097656 42.804688 -7.015625 41.828125 -4.859375 C 40.859375 -2.703125 39.726562 -1.03125 38.4375 0.15625 C 35.914062 2.382812 33.296875 3.757812 30.578125 4.28125 C 27.859375 4.800781 25.628906 5.046875 23.890625 5.015625 C 21.890625 4.984375 19.890625 4.71875 17.890625 4.21875 C 14.085938 3.28125 10.941406 1.421875 8.453125 -1.359375 C 6.410156 -3.671875 5.023438 -6.003906 4.296875 -8.359375 C 3.578125 -10.710938 3.25 -13.757812 3.3125 -17.5 C 3.425781 -23.925781 5.054688 -29.21875 8.203125 -33.375 C 9.640625 -35.28125 11.671875 -36.984375 14.296875 -38.484375 C 16.929688 -39.984375 19.523438 -40.976562 22.078125 -41.46875 Z M 27.640625 -32.234375 C 26.585938 -32.785156 25.722656 -33.066406 25.046875 -33.078125 C 24.242188 -33.085938 23.300781 -32.800781 22.21875 -32.21875 C 21.144531 -31.644531 20.335938 -31.03125 19.796875 -30.375 C 19.097656 -29.570312 18.453125 -28.523438 17.859375 -27.234375 C 17.273438 -25.941406 16.976562 -25.03125 16.96875 -24.5 C 16.96875 -24.09375 17.046875 -23.867188 17.203125 -23.828125 C 17.367188 -23.796875 17.519531 -23.78125 17.65625 -23.78125 C 18.0625 -23.769531 18.867188 -23.820312 20.078125 -23.9375 C 25.765625 -24.3125 29.148438 -24.753906 30.234375 -25.265625 C 30.710938 -25.453125 30.957031 -25.984375 30.96875 -26.859375 C 30.96875 -26.921875 30.953125 -27.203125 30.921875 -27.703125 C 30.898438 -28.210938 30.628906 -28.90625 30.109375 -29.78125 C 29.597656 -30.863281 28.773438 -31.679688 27.640625 -32.234375 Z M 27.640625 -32.234375 "/></g></g></g><g fill="#d9d9d9" fill-opacity="1"><g transform="translate(426.01199, 167.325781)"><g><path d="M 43.625 -34.21875 C 43.726562 -34.394531 43.941406 -34.445312 44.265625 -34.375 C 44.398438 -34.351562 44.554688 -34.289062 44.734375 -34.1875 C 45.691406 -33.863281 48.078125 -33.171875 51.890625 -32.109375 C 55.972656 -31.003906 58 -30.351562 57.96875 -30.15625 C 57.914062 -29.894531 56.457031 -27.804688 53.59375 -23.890625 C 49.90625 -18.835938 46.359375 -13.828125 42.953125 -8.859375 C 36.171875 0.953125 32.125 7.085938 30.8125 9.546875 C 30.644531 9.722656 30.171875 9.78125 29.390625 9.71875 C 28.617188 9.664062 26.851562 9.359375 24.09375 8.796875 L 17.625 7.484375 L 17.375 4.15625 C 17.050781 1.082031 15.789062 -5.960938 13.59375 -16.984375 C 13.457031 -17.628906 13.082031 -19.550781 12.46875 -22.75 C 11.851562 -25.945312 11.453125 -28.070312 11.265625 -29.125 C 10.585938 -32.539062 10.03125 -35.195312 9.59375 -37.09375 C 9.164062 -38.988281 8.972656 -40.039062 9.015625 -40.25 C 9.035156 -40.375 10.90625 -40.191406 14.625 -39.703125 C 18.351562 -39.222656 20.910156 -38.84375 22.296875 -38.5625 L 23.578125 -38.3125 L 23.734375 -35.609375 C 23.992188 -31.859375 24.742188 -26.410156 25.984375 -19.265625 C 27.222656 -12.117188 27.941406 -8.523438 28.140625 -8.484375 C 28.265625 -8.460938 28.898438 -9.335938 30.046875 -11.109375 C 31.203125 -12.890625 32.65625 -15.238281 34.40625 -18.15625 C 36.164062 -21.082031 37.816406 -23.992188 39.359375 -26.890625 C 39.984375 -27.921875 40.660156 -29.0625 41.390625 -30.3125 C 42.128906 -31.5625 42.675781 -32.488281 43.03125 -33.09375 C 43.394531 -33.707031 43.59375 -34.082031 43.625 -34.21875 Z M 43.625 -34.21875 "/></g></g></g><g fill="#d9d9d9" fill-opacity="1"><g transform="translate(471.399871, 176.314443)"><g><path d="M 35.5 -30.75 C 36.78125 -30.519531 37.984375 -30.175781 39.109375 -29.71875 C 42.023438 -28.539062 44.601562 -26.632812 46.84375 -24 C 50.238281 -20.09375 51.332031 -14.957031 50.125 -8.59375 C 49.832031 -6.976562 49.472656 -5.644531 49.046875 -4.59375 C 48.765625 -3.90625 48.316406 -3.160156 47.703125 -2.359375 C 47.097656 -1.566406 45.957031 -1.148438 44.28125 -1.109375 C 41.289062 -1.023438 35.800781 -2.34375 27.8125 -5.0625 L 20.59375 -7.578125 L 20.453125 -6.125 C 20.160156 -3.632812 20.546875 -1.378906 21.609375 0.640625 C 22.253906 1.910156 22.988281 2.859375 23.8125 3.484375 C 24.644531 4.109375 25.617188 4.644531 26.734375 5.09375 C 27.222656 5.289062 27.757812 5.46875 28.34375 5.625 C 32.1875 6.832031 36.5625 6.546875 41.46875 4.765625 L 45.140625 3.453125 L 44.4375 5.21875 C 43.675781 7.082031 42.453125 8.84375 40.765625 10.5 C 39.085938 12.164062 37.429688 13.316406 35.796875 13.953125 C 32.648438 15.128906 29.710938 15.472656 26.984375 14.984375 C 24.265625 14.492188 22.097656 13.921875 20.484375 13.265625 C 18.628906 12.515625 16.859375 11.546875 15.171875 10.359375 C 11.960938 8.128906 9.695312 5.265625 8.375 1.765625 C 7.300781 -1.117188 6.847656 -3.789062 7.015625 -6.25 C 7.191406 -8.707031 7.984375 -11.671875 9.390625 -15.140625 C 11.796875 -21.097656 15.210938 -25.445312 19.640625 -28.1875 C 21.671875 -29.457031 24.179688 -30.316406 27.171875 -30.765625 C 30.171875 -31.210938 32.945312 -31.207031 35.5 -30.75 Z M 37.375 -20.140625 C 36.59375 -21.035156 35.882812 -21.609375 35.25 -21.859375 C 34.507812 -22.160156 33.53125 -22.234375 32.3125 -22.078125 C 31.101562 -21.929688 30.128906 -21.644531 29.390625 -21.21875 C 28.453125 -20.726562 27.476562 -19.984375 26.46875 -18.984375 C 25.457031 -17.984375 24.847656 -17.238281 24.640625 -16.75 C 24.492188 -16.375 24.488281 -16.140625 24.625 -16.046875 C 24.769531 -15.953125 24.90625 -15.882812 25.03125 -15.84375 C 25.40625 -15.6875 26.171875 -15.445312 27.328125 -15.125 C 32.773438 -13.425781 36.097656 -12.617188 37.296875 -12.703125 C 37.804688 -12.710938 38.222656 -13.125 38.546875 -13.9375 C 38.566406 -13.988281 38.65625 -14.253906 38.8125 -14.734375 C 38.96875 -15.210938 38.960938 -15.957031 38.796875 -16.96875 C 38.710938 -18.164062 38.238281 -19.222656 37.375 -20.140625 Z M 37.375 -20.140625 "/></g></g></g><g fill="#d9d9d9" fill-opacity="1"><g transform="translate(510.426654, 192.647218)"><g><path d="M 31.546875 -43.34375 C 31.640625 -43.507812 31.738281 -43.6875 31.84375 -43.875 L 31.9375 -44.03125 C 32.070312 -44.269531 32.207031 -44.503906 32.34375 -44.734375 L 32.4375 -44.921875 C 32.46875 -44.972656 32.5 -45.023438 32.53125 -45.078125 L 32.640625 -45.265625 C 32.703125 -45.378906 32.769531 -45.492188 32.84375 -45.609375 L 32.984375 -45.875 C 33.015625 -45.9375 33.046875 -45.992188 33.078125 -46.046875 L 33.984375 -47.625 C 34.015625 -47.675781 34.03125 -47.703125 34.03125 -47.703125 L 34.125 -47.875 L 34.375 -48.3125 C 35.101562 -49.59375 35.703125 -50.613281 36.171875 -51.375 C 36.648438 -52.144531 36.992188 -52.679688 37.203125 -52.984375 C 37.410156 -53.285156 37.570312 -53.40625 37.6875 -53.34375 C 38.394531 -52.5625 40.882812 -50.570312 45.15625 -47.375 L 47.65625 -45.5 L 45.203125 -41.578125 C 43.398438 -38.671875 40.566406 -33.816406 36.703125 -27.015625 C 34.753906 -23.597656 31.332031 -17.507812 26.4375 -8.75 C 21.539062 0 18.46875 5.875 17.21875 8.875 C 15.832031 12 14.957031 13.882812 14.59375 14.53125 C 14.457031 14.75 14.390625 14.859375 14.390625 14.859375 C 14.046875 14.660156 11.984375 12.875 8.203125 9.5 C 4.429688 6.125 2.476562 4.289062 2.34375 4 L 4.203125 1.34375 C 16.617188 -18.207031 25.734375 -33.101562 31.546875 -43.34375 Z M 31.546875 -43.34375 "/></g></g></g><g fill="#d9d9d9" fill-opacity="1"><g transform="translate(528.306956, 201.304914)"><g><path d="M 42.921875 -20.15625 C 44.078125 -19.59375 45.238281 -18.859375 46.40625 -17.953125 C 47.40625 -17.179688 48.691406 -15.972656 50.265625 -14.328125 C 51.835938 -12.691406 53.125 -10.726562 54.125 -8.4375 C 54.988281 -6.488281 55.546875 -4.335938 55.796875 -1.984375 C 56.046875 0.367188 55.972656 2.617188 55.578125 4.765625 C 55.128906 6.867188 54.550781 8.679688 53.84375 10.203125 C 53.132812 11.722656 52.003906 13.484375 50.453125 15.484375 C 50.410156 15.535156 50.347656 15.613281 50.265625 15.71875 C 46.085938 21.113281 40.832031 24.070312 34.5 24.59375 C 28.414062 25.113281 22.785156 23.367188 17.609375 19.359375 C 12.097656 15.003906 9.050781 9.765625 8.46875 3.640625 C 7.882812 -2.484375 9.539062 -8.054688 13.4375 -13.078125 C 13.757812 -13.492188 14.066406 -13.890625 14.359375 -14.265625 C 18.066406 -18.398438 22.554688 -21.023438 27.828125 -22.140625 C 33.097656 -23.265625 38.128906 -22.601562 42.921875 -20.15625 Z M 42.0625 -7.765625 C 41.207031 -8.753906 40.582031 -9.398438 40.1875 -9.703125 C 39.789062 -10.015625 39.082031 -10.316406 38.0625 -10.609375 C 35.769531 -11.378906 33.210938 -11.195312 30.390625 -10.0625 C 29.128906 -9.425781 28.222656 -8.859375 27.671875 -8.359375 C 27.117188 -7.859375 26.175781 -6.859375 24.84375 -5.359375 C 24.382812 -4.867188 23.96875 -4.390625 23.59375 -3.921875 C 22.363281 -2.335938 21.570312 -0.878906 21.21875 0.453125 C 20.34375 3.335938 20.347656 5.648438 21.234375 7.390625 C 22.117188 9.128906 23.015625 10.347656 23.921875 11.046875 C 24.921875 11.816406 26.15625 12.351562 27.625 12.65625 C 29.007812 13.0625 30.164062 13.15625 31.09375 12.9375 C 32.03125 12.71875 33.304688 12.222656 34.921875 11.453125 C 36.035156 10.878906 36.859375 10.351562 37.390625 9.875 C 37.929688 9.40625 38.832031 8.351562 40.09375 6.71875 C 41.320312 5.132812 42.109375 3.988281 42.453125 3.28125 C 42.796875 2.570312 43.09375 1.675781 43.34375 0.59375 C 43.71875 -0.882812 43.769531 -2.40625 43.5 -3.96875 C 43.226562 -5.53125 42.75 -6.796875 42.0625 -7.765625 Z M 42.0625 -7.765625 "/></g></g></g><g fill="#d9d9d9" fill-opacity="1"><g transform="translate(565.308008, 229.124352)"><g><path d="M 49.4375 -5.8125 C 50.851562 -5.09375 52.101562 -4.097656 53.1875 -2.828125 C 53.28125 -2.734375 53.394531 -2.601562 53.53125 -2.4375 C 55.90625 0.71875 57.128906 4.3125 57.203125 8.34375 C 57.285156 12.382812 56.164062 16.238281 53.84375 19.90625 C 52.882812 21.457031 51.742188 22.820312 50.421875 24 C 49.097656 25.175781 48.3125 25.875 48.0625 26.09375 C 46.039062 27.84375 44.265625 29.113281 42.734375 29.90625 C 39.921875 31.351562 36.800781 32.1875 33.375 32.40625 C 29.945312 32.625 27.015625 32.191406 24.578125 31.109375 C 22.285156 30.179688 20.265625 28.703125 18.515625 26.671875 C 18.117188 26.210938 17.332031 25.148438 16.15625 23.484375 C 14.976562 21.816406 14.3125 19.457031 14.15625 16.40625 L 14.15625 13.625 L 9.828125 17.359375 C 7.035156 19.765625 3.78125 22.753906 0.0625 26.328125 C -2.65625 28.828125 -4.390625 30.398438 -5.140625 31.046875 C -5.398438 31.265625 -5.53125 31.375 -5.53125 31.375 C -5.582031 31.425781 -5.78125 31.25 -6.125 30.84375 C -6.820312 30.03125 -8.25 28.125 -10.40625 25.125 L -14.90625 18.828125 L -12.125 16.796875 C -6.175781 12.554688 -0.535156 8.179688 4.796875 3.671875 C 10.140625 -0.835938 13.671875 -3.835938 15.390625 -5.328125 C 21.472656 -10.566406 26.253906 -14.910156 29.734375 -18.359375 C 31.679688 -20.296875 33.035156 -21.59375 33.796875 -22.25 C 34.148438 -22.5625 34.347656 -22.695312 34.390625 -22.65625 C 34.390625 -22.65625 34.414062 -22.625 34.46875 -22.5625 C 34.769531 -22.207031 36.070312 -20.285156 38.375 -16.796875 L 42.265625 -10.890625 L 41.109375 -9.765625 C 40.554688 -9.191406 40.390625 -8.78125 40.609375 -8.53125 C 40.734375 -8.375 41.007812 -8.304688 41.4375 -8.328125 C 42.050781 -8.328125 43.191406 -8.050781 44.859375 -7.5 C 46.523438 -6.945312 48.050781 -6.382812 49.4375 -5.8125 Z M 43.28125 3.34375 C 43.039062 2.65625 42.679688 2.03125 42.203125 1.46875 C 41.585938 0.757812 40.585938 0.144531 39.203125 -0.375 C 37.828125 -0.90625 35.960938 -0.90625 33.609375 -0.375 C 31.960938 -0.0078125 30.101562 1.066406 28.03125 2.859375 C 26.664062 4.035156 25.769531 4.914062 25.34375 5.5 C 24.914062 6.082031 24.5 6.90625 24.09375 7.96875 C 23.425781 9.863281 23.21875 11.722656 23.46875 13.546875 C 23.71875 15.367188 24.1875 16.679688 24.875 17.484375 C 25.050781 17.691406 25.25 17.875 25.46875 18.03125 C 26.195312 18.550781 27.328125 18.851562 28.859375 18.9375 C 30.398438 19.03125 31.75 18.882812 32.90625 18.5 C 34.414062 17.988281 36.238281 16.816406 38.375 14.984375 C 38.519531 14.847656 39.1875 14.242188 40.375 13.171875 C 41.570312 12.109375 42.410156 10.925781 42.890625 9.625 C 43.816406 7.34375 43.945312 5.25 43.28125 3.34375 Z M 43.28125 3.34375 "/></g></g></g><g fill="#d9d9d9" fill-opacity="1"><g transform="translate(597.242244, 265.906555)"><g><path d="M 46.90625 -2.390625 C 47.78125 -1.421875 48.519531 -0.414062 49.125 0.625 C 50.6875 3.351562 51.539062 6.453125 51.6875 9.921875 C 51.957031 15.078125 49.660156 19.796875 44.796875 24.078125 C 43.578125 25.171875 42.472656 26 41.484375 26.5625 C 40.847656 26.9375 40.039062 27.25 39.0625 27.5 C 38.082031 27.757812 36.925781 27.390625 35.59375 26.390625 C 33.164062 24.617188 29.644531 20.195312 25.03125 13.125 L 20.890625 6.71875 L 19.875 7.765625 C 18.125 9.546875 17.046875 11.5625 16.640625 13.8125 C 16.367188 15.195312 16.363281 16.390625 16.625 17.390625 C 16.894531 18.390625 17.332031 19.414062 17.9375 20.46875 C 18.207031 20.925781 18.519531 21.398438 18.875 21.890625 C 21.164062 25.203125 24.789062 27.664062 29.75 29.28125 L 33.453125 30.5 L 31.8125 31.453125 C 30.0625 32.460938 28.007812 33.101562 25.65625 33.375 C 23.3125 33.644531 21.300781 33.53125 19.625 33.03125 C 16.414062 32.019531 13.890625 30.484375 12.046875 28.421875 C 10.203125 26.359375 8.84375 24.570312 7.96875 23.0625 C 6.96875 21.332031 6.171875 19.476562 5.578125 17.5 C 4.421875 13.757812 4.394531 10.109375 5.5 6.546875 C 6.445312 3.617188 7.738281 1.238281 9.375 -0.59375 C 11.019531 -2.4375 13.460938 -4.289062 16.703125 -6.15625 C 22.265625 -9.363281 27.640625 -10.6875 32.828125 -10.125 C 35.210938 -9.875 37.722656 -9.003906 40.359375 -7.515625 C 42.992188 -6.035156 45.175781 -4.328125 46.90625 -2.390625 Z M 41.859375 7.125 C 41.785156 5.9375 41.578125 5.050781 41.234375 4.46875 C 40.835938 3.769531 40.113281 3.109375 39.0625 2.484375 C 38.007812 1.859375 37.0625 1.484375 36.21875 1.359375 C 35.175781 1.179688 33.945312 1.164062 32.53125 1.3125 C 31.125 1.46875 30.191406 1.679688 29.734375 1.953125 C 29.378906 2.148438 29.226562 2.328125 29.28125 2.484375 C 29.34375 2.648438 29.40625 2.789062 29.46875 2.90625 C 29.675781 3.257812 30.132812 3.925781 30.84375 4.90625 C 34.09375 9.59375 36.210938 12.269531 37.203125 12.9375 C 37.617188 13.238281 38.207031 13.171875 38.96875 12.734375 C 39.019531 12.703125 39.25 12.546875 39.65625 12.265625 C 40.070312 11.992188 40.53125 11.410156 41.03125 10.515625 C 41.6875 9.515625 41.960938 8.382812 41.859375 7.125 Z M 41.859375 7.125 "/></g></g></g><g fill="#d9d9d9" fill-opacity="1"><g transform="translate(618.03852, 301.925839)"><g><path d="M 48.59375 9.65625 C 50.0625 10.675781 50.90625 11.394531 51.125 11.8125 C 51.3125 12.3125 51.25 13.40625 50.9375 15.09375 C 50.625 16.789062 50.15625 18.328125 49.53125 19.703125 C 48.738281 21.367188 48.25 22.238281 48.0625 22.3125 C 47.5 22.53125 44.640625 20.765625 39.484375 17.015625 C 34.691406 13.472656 31.335938 11.242188 29.421875 10.328125 L 27.75 9.671875 L 22.21875 11.796875 C 15.226562 14.472656 9.445312 17.113281 4.875 19.71875 C 4.21875 20.113281 3.734375 20.367188 3.421875 20.484375 C 3.046875 20.628906 2.804688 20.648438 2.703125 20.546875 C 2.554688 20.535156 2.410156 20.34375 2.265625 19.96875 C 2.023438 19.34375 1.769531 18.289062 1.5 16.8125 C 1.007812 14.4375 0.3125 11.878906 -0.59375 9.140625 L -1.9375 5.046875 L -0.78125 4.921875 C 0.144531 4.773438 4.492188 3.25 12.265625 0.34375 C 20.046875 -2.550781 25.335938 -4.535156 28.140625 -5.609375 C 33.703125 -7.734375 37.050781 -9.082031 38.1875 -9.65625 C 39.820312 -10.4375 40.890625 -10.925781 41.390625 -11.125 C 41.585938 -11.195312 41.6875 -11.234375 41.6875 -11.234375 C 41.6875 -11.234375 41.695312 -11.195312 41.71875 -11.125 C 41.863281 -10.757812 42.125 -9.5 42.5 -7.34375 C 43.019531 -4.675781 43.515625 -2.539062 43.984375 -0.9375 C 44.554688 1.28125 44.785156 2.570312 44.671875 2.9375 C 44.566406 3.300781 44.140625 3.628906 43.390625 3.921875 C 43.078125 4.035156 42.71875 4.132812 42.3125 4.21875 C 41.71875 4.375 41.238281 4.519531 40.875 4.65625 C 40.375 4.84375 40.148438 5 40.203125 5.125 C 40.253906 5.25 41.28125 5.789062 43.28125 6.75 C 45.226562 7.507812 47 8.476562 48.59375 9.65625 Z M 48.59375 9.65625 "/></g></g></g><g fill="#d9d9d9" fill-opacity="1"><g transform="translate(630.157105, 333.62957)"><g/></g></g><g fill="#d9d9d9" fill-opacity="1"><g transform="translate(636.643351, 359.5626)"><g/></g></g><g fill="#d9d9d9" fill-opacity="1"><g transform="translate(640.01221, 386.39493)"><g><path d="M 46.171875 4.703125 C 57.203125 4.378906 62.722656 4.382812 62.734375 4.71875 C 62.671875 5.050781 62.585938 7.265625 62.484375 11.359375 C 62.453125 15.304688 62.335938 17.445312 62.140625 17.78125 C 61.941406 18.125 59.335938 18.1875 54.328125 17.96875 C 45.546875 17.632812 34.820312 17.65625 22.15625 18.03125 C 9.488281 18.40625 -0.945312 19.023438 -9.15625 19.890625 C -11.820312 20.160156 -13.195312 20.257812 -13.28125 20.1875 C -13.476562 20.132812 -13.453125 18.394531 -13.203125 14.96875 C -13.085938 13.894531 -12.875 11.414062 -12.5625 7.53125 C -12.46875 5.914062 -12.359375 5.039062 -12.234375 4.90625 C -12.023438 4.757812 -10.382812 4.785156 -7.3125 4.984375 C -2.21875 5.203125 5.910156 5.289062 17.078125 5.25 C 28.242188 5.21875 37.941406 5.035156 46.171875 4.703125 Z M 46.171875 4.703125 "/></g></g></g><g fill="#d9d9d9" fill-opacity="1"><g transform="translate(640.818035, 407.084779)"><g/></g></g><g fill="#d9d9d9" fill-opacity="1"><g transform="translate(638.95262, 433.75153)"><g/></g></g></svg>